<svg xmlns="http://www.w3.org/2000/svg" height="24" width="24" viewBox="0 0 36 45" x="0px" y="0px"><title>Монтажная область 2</title><path d="M35.6,13.57l-2.61-2-1.35-1L18.63.73l0,0-.05,0L18.46.61l0,0a.66.66,0,0,0-.2-.06A.78.78,0,0,0,18,.5a.85.85,0,0,0-.31.06.35.35,0,0,0-.11,0,.05.05,0,0,1,0,0L17.4.7l0,0-13,9.84L3,11.59l-2.61,2A1,1,0,0,0,.2,15a1,1,0,0,0,.8.4,1,1,0,0,0,.6-.21l1.83-1.39L7.62,34.7a1,1,0,0,0,1,.8H27.4a1,1,0,0,0,1-.8l4.19-20.93,1.83,1.39a1,1,0,0,0,.6.21,1,1,0,0,0,.8-.4A1,1,0,0,0,35.6,13.57Zm-9,19.93H9.42L5.21,12.43,18,2.75l12.79,9.68Z"/><path d="M11,16.5a7,7,0,1,0,7-7A7,7,0,0,0,11,16.5Zm12,0a5,5,0,1,1-5-5A5,5,0,0,1,23,16.5Z"/><path d="M18,25.5a3,3,0,0,0-3,3,1,1,0,0,0,2,0,1,1,0,0,1,2,0,1,1,0,0,0,2,0A3,3,0,0,0,18,25.5Z"/><text x="0" y="51" fill="#000000" font-size="5px" font-weight="bold" font-family="'Helvetica Neue', Helvetica, Arial-Unicode, Arial, Sans-serif">Created by Vadim Solomakhin</text><text x="0" y="56" fill="#000000" font-size="5px" font-weight="bold" font-family="'Helvetica Neue', Helvetica, Arial-Unicode, Arial, Sans-serif">from the Noun Project</text></svg>