<svg xmlns="http://www.w3.org/2000/svg" width="20" height="16" viewBox="0 0 6.35 6.35"><path d="m 3.1760335,2.1166668 c -0.873618,0 -1.5880167,0.7144567 -1.5880167,1.588146 0,0.8736893 0.7143987,1.5860789 1.5880167,1.5860789 0.8736182,0 1.5854332,-0.7123896 1.5854332,-1.5860789 0,-0.8736893 -0.711815,-1.588146 -1.5854332,-1.588146 z m 0,0.5292097 c 0.5876354,0 1.0562665,0.4712532 1.0562665,1.0589363 0,0.5876831 -0.4686311,1.0563523 -1.0562665,1.0563523 -0.5876351,0 -1.05885,-0.4686692 -1.05885,-1.0563523 0,-0.5876831 0.4712149,-1.0589363 1.05885,-1.0589363 z m -0.00103,3.1747417 C 2.3132415,5.8206179 1.5326444,6.1019813 0.95756431,6.5353614 0.38248427,6.9687416 -5.7397786e-8,7.5642568 0,8.202062 A 0.2646098,0.26463133 0 0 0 0.26458334,8.4666669 H 6.0854168 A 0.2646098,0.26463133 0 0 0 6.3500002,8.202062 C 6.3500004,7.5642568 5.9675158,6.9687416 5.3924357,6.5353614 4.8173559,6.1019813 4.0367586,5.8206179 3.1750001,5.8206182 Z m 0,0.5292097 c 0.7456202,0 1.4203085,0.2478467 1.8985921,0.6082811 0.3801158,0.2864552 0.5819502,0.6361022 0.6676596,0.9793481 H 0.60874837 C 0.69445787,7.5942112 0.89629228,7.2445642 1.2764079,6.958109 1.7546915,6.5976746 2.4293798,6.3498279 3.1750001,6.3498279 Z" color="#000" font-family="sans-serif" font-weight="400" overflow="visible" transform="translate(0 -2.117)" white-space="normal" style="line-height:normal;font-variant-ligatures:normal;font-variant-position:normal;font-variant-caps:normal;font-variant-numeric:normal;font-variant-alternates:normal;font-feature-settings:normal;text-indent:0;text-align:start;text-decoration-line:none;text-decoration-style:solid;text-decoration-color:#000;text-transform:none;text-orientation:mixed;shape-padding:0;isolation:auto;mix-blend-mode:normal"/></svg>